<?xml version="1.0" standalone="no"?>
<!DOCTYPE svg PUBLIC "-//W3C//DTD SVG 20010904//EN"
 "http://www.w3.org/TR/2001/REC-SVG-20010904/DTD/svg10.dtd">
<svg version="1.0" xmlns="http://www.w3.org/2000/svg"
 width="512.000000pt" height="512.000000pt" viewBox="0 0 512.000000 512.000000"
 preserveAspectRatio="xMidYMid meet">
<metadata>
Created by potrace 1.11, written by Peter Selinger 2001-2013
</metadata>
<g transform="translate(0.000000,512.000000) scale(0.100000,-0.100000)"
fill="#000000" stroke="none">
<path d="M2535 5043 c-11 -2 -572 -556 -1247 -1231 -1380 -1380 -1283 -1272
-1283 -1427 0 -66 5 -90 28 -139 80 -171 279 -240 445 -154 56 29 191 161
1073 1043 l1009 1009 1012 -1012 c557 -556 1022 -1018 1033 -1025 64 -43 193
-65 260 -45 17 5 35 10 40 12 61 14 146 95 182 172 22 48 27 74 28 139 0 155
93 52 -1292 1436 -808 806 -1235 1225 -1248 1225 -11 0 -29 -1 -40 -3z"/>
<path d="M2555 3876 c-11 -7 -462 -456 -1002 -996 l-983 -982 0 -879 c0 -622
3 -885 11 -902 6 -14 22 -29 34 -35 32 -15 3858 -15 3890 0 13 6 28 21 34 35
8 17 11 280 11 901 l0 878 -94 94 c-52 52 -92 99 -89 105 4 5 2 7 -2 2 -11
-10 -395 374 -388 388 4 5 2 7 -2 2 -11 -10 -216 194 -208 206 3 6 2 7 -3 4
-11 -7 -397 376 -389 386 3 4 2 5 -2 2 -10 -8 -413 398 -406 409 3 5 2 6 -4 3
-11 -7 -396 377 -386 386 11 12 -2 8 -22 -7z m-509 -1477 c7 -341 10 -419 18
-426 4 -4 15 -2 24 3 19 12 19 11 23 277 1 102 7 177 12 177 6 0 6 5 0 13 -10
12 -9 157 1 183 6 14 45 20 47 7 1 -15 9 -300 13 -471 4 -175 11 -211 39 -184
6 7 13 27 13 45 1 18 5 160 8 317 8 291 13 327 44 296 17 -16 17 -29 26 -565
2 -151 0 -285 -5 -297 -12 -32 -52 -56 -96 -57 l-38 -2 0 -600 c-1 -458 -4
-605 -13 -622 -34 -61 -131 -61 -164 0 -9 16 -12 173 -12 622 l-1 600 -40 2
c-46 3 -87 30 -96 64 -6 24 1 650 10 837 1 22 34 32 45 13 3 -5 8 -125 12
-267 5 -241 10 -368 13 -386 0 -5 7 -8 15 -8 30 0 29 -14 40 444 6 224 12 254
44 222 11 -10 15 -68 18 -237z m1111 230 c39 -12 100 -81 111 -124 5 -16 8
-280 8 -585 -1 -486 -3 -555 -16 -556 -8 -1 -38 -2 -66 -3 l-51 -1 0 -409 c-1
-439 -1 -445 -53 -483 -70 -51 -180 -9 -195 76 -3 17 -5 468 -3 1001 l3 970
30 42 c59 81 132 104 232 72z"/>
</g>
</svg>
